HIERARCHY
ROOT Hips
{
	OFFSET 0.000000 0.000000 0.000000
	CHANNELS 6 Xposition Yposition Zposition Zrotation Yrotation Xrotation 
	JOINT LHipJoint
	{
		OFFSET 0.000000 0.000000 0.000000
		CHANNELS 3 Zrotation Yrotation Xrotation
		JOINT LeftUpLeg
		{
			OFFSET 1.363060 -1.794630 0.839290
			CHANNELS 3 Zrotation Yrotation Xrotation
			JOINT LeftLeg
			{
				OFFSET 2.448110 -6.726130 0.000000
				CHANNELS 3 Zrotation Yrotation Xrotation
				JOINT LeftFoot
				{
					OFFSET 2.562200 -7.039590 0.000000
					CHANNELS 3 Zrotation Yrotation Xrotation
					JOINT LeftToeBase
					{
						OFFSET 0.157640 -0.433110 2.322550
						CHANNELS 3 Zrotation Yrotation Xrotation
						End Site
						{
							OFFSET 0.000000 0.000000 0.000000
						}
					}
				}
			}
		}
	}
	JOINT RHipJoint
	{
		OFFSET 0.000000 0.000000 0.000000
		CHANNELS 3 Zrotation Yrotation Xrotation
		JOINT RightUpLeg
		{
			OFFSET -1.305520 -1.794630 0.839290
			CHANNELS 3 Zrotation Yrotation Xrotation
			JOINT RightLeg
			{
				OFFSET -2.542530 -6.985550 0.000000
				CHANNELS 3 Zrotation Yrotation Xrotation
				JOINT RightFoot
				{
					OFFSET -2.568260 -7.056230 0.000000
					CHANNELS 3 Zrotation Yrotation Xrotation
					JOINT RightToeBase
					{
						OFFSET -0.164730 -0.452590 2.363150
						CHANNELS 3 Zrotation Yrotation Xrotation
						End Site
						{
							OFFSET 0.000000 0.000000 0.000000
						}
					}
				}
			}
		}
	}
	JOINT LowerBack
	{
		OFFSET 0.000000 0.000000 0.000000
		CHANNELS 3 Zrotation Yrotation Xrotation
		JOINT Spine
		{
			OFFSET 0.028270 2.035590 -0.193380
			CHANNELS 3 Zrotation Yrotation Xrotation
			JOINT Spine1
			{
				OFFSET 0.056720 2.048850 -0.042750
				CHANNELS 3 Zrotation Yrotation Xrotation
				JOINT Neck
				{
					OFFSET 0.000000 0.000000 0.000000
					CHANNELS 3 Zrotation Yrotation Xrotation
					JOINT Neck1
					{
						OFFSET -0.054170 1.746240 0.172020
						CHANNELS 3 Zrotation Yrotation Xrotation
						JOINT Head
						{
							OFFSET 0.104070 1.761360 -0.123970
							CHANNELS 3 Zrotation Yrotation Xrotation
							End Site
							{
								OFFSET 0.000000 0.000000 0.000000
							}
						}
					}
				}
				JOINT LeftShoulder
				{
					OFFSET 0.000000 0.000000 0.000000
					CHANNELS 3 Zrotation Yrotation Xrotation
					JOINT LeftArm
					{
						OFFSET 3.362410 1.200890 -0.311210
						CHANNELS 3 Zrotation Yrotation Xrotation
						JOINT LeftForeArm
						{
							OFFSET 4.983000 -0.000000 -0.000000
							CHANNELS 3 Zrotation Yrotation Xrotation
							JOINT LeftHand
							{
								OFFSET 3.483560 -0.000000 -0.000000
								CHANNELS 3 Zrotation Yrotation Xrotation
								JOINT LeftFingerBase
								{
									OFFSET 0.000000 0.000000 0.000000
									CHANNELS 3 Zrotation Yrotation Xrotation
									JOINT LeftHandIndex1
									{
										OFFSET 0.715260 -0.000000 -0.000000
										CHANNELS 3 Zrotation Yrotation Xrotation
										End Site
										{
											OFFSET 0.000000 0.000000 0.000000
										}
									}
								}
								JOINT LThumb
								{
									OFFSET 0.000000 0.000000 0.000000
									CHANNELS 3 Zrotation Yrotation Xrotation
									End Site
									{
										OFFSET 0.000000 0.000000 0.000000
									}
								}
							}
						}
					}
				}
				JOINT RightShoulder
				{
					OFFSET 0.000000 0.000000 0.000000
					CHANNELS 3 Zrotation Yrotation Xrotation
					JOINT RightArm
					{
						OFFSET -3.136600 1.374050 -0.404650
						CHANNELS 3 Zrotation Yrotation Xrotation
						JOINT RightForeArm
						{
							OFFSET -5.241900 -0.000000 -0.000000
							CHANNELS 3 Zrotation Yrotation Xrotation
							JOINT RightHand
							{
								OFFSET -3.444170 -0.000000 -0.000000
								CHANNELS 3 Zrotation Yrotation Xrotation
								JOINT RightFingerBase
								{
									OFFSET 0.000000 0.000000 0.000000
									CHANNELS 3 Zrotation Yrotation Xrotation
									JOINT RightHandIndex1
									{
										OFFSET -0.622530 -0.000000 -0.000000
										CHANNELS 3 Zrotation Yrotation Xrotation
										End Site
										{
											OFFSET 0.000000 0.000000 0.000000
										}
									}
								}
								JOINT RThumb
								{
									OFFSET 0.000000 0.000000 0.000000
									CHANNELS 3 Zrotation Yrotation Xrotation
									End Site
									{
										OFFSET 0.000000 0.000000 0.000000
									}
								}
							}
						}
					}
				}
			}
		}
	}
}
MOTION
Frames: 9
Frame Time: 0.008333
-4.162177 17.902414 7.954493 1.157228 10.123395 -3.461971 -2.855983 0.948933 1.664771 -7.568525 -7.358757 -16.095568 1.423326 10.317319 30.355731 -0.230603 1.904012 3.064692 0.008200 -0.585200 -1.608000 1.583735 -1.244639 1.718977 15.248813 0.707923 -4.839855 -1.937223 -9.499322 28.661492 -0.004549 -2.084762 -5.755247 -0.081500 1.841900 -5.068900 2.925567 2.679398 10.612344 1.225732 3.997703 1.506749 -2.411670 2.074143 -3.671155 -9.296782 4.474619 -12.606431 3.598867 8.518998 30.878638 4.951800 1.930900 17.538500 -5.992940 -1.592805 -1.581696 -84.280316 2.774682 11.838820 20.290237 -28.354984 -6.257174 -1.418019 -2.523237 4.989775 22.520440 23.539083 10.971200 -7.125000 0.000000 0.000000 -6.953700 58.057300 -2.228800 5.212993 0.920150 -1.289092 80.973823 -2.194055 11.770060 -18.892162 27.702296 -5.092868 0.408789 -0.074740 5.111828 -15.487290 7.270105 -2.071700 7.125000 0.000000 0.000000 7.954500 -22.420300 4.360400 
-4.117995 17.916504 7.966268 1.051671 10.461169 -3.436014 -2.822709 0.987412 1.668686 -6.757201 -7.797675 -15.904588 1.345019 10.191009 29.896172 -0.334924 2.520207 3.440501 -0.000000 -0.035800 -0.098300 1.577899 -1.268173 1.734760 15.280280 0.646775 -4.540050 -1.871486 -9.391224 28.312213 0.068990 -2.414492 -5.874641 -0.081800 1.844500 -5.076100 3.013406 2.612462 10.705585 1.220645 3.926187 1.476385 -2.491729 2.036411 -3.751277 -9.234510 4.578263 -13.030498 3.872330 8.692707 31.254343 5.141400 1.999400 17.887000 -6.009341 -1.583029 -1.591927 -84.255863 2.965649 11.496567 20.033723 -28.055163 -6.101745 -1.436138 -2.509190 5.246275 22.488961 23.422273 10.911500 -7.125000 0.000000 0.000000 -6.924600 57.922800 -2.197000 5.223675 0.919267 -1.298168 80.907962 -2.157510 11.600000 -18.834966 27.627509 -5.062735 0.406653 -0.068257 5.012165 -15.386545 7.102342 -2.009000 7.125000 0.000000 0.000000 8.035700 -22.602200 4.372100 
-4.072404 17.925260 7.981868 1.073299 10.713641 -3.407900 -2.798632 1.022066 1.678216 -6.065503 -8.192712 -15.683267 1.253900 10.042451 29.382876 -0.408589 2.958170 3.720429 0.004000 0.408900 1.123500 1.569143 -1.292374 1.745764 15.158112 0.676559 -4.315751 -1.818465 -9.308392 28.030980 0.150034 -2.755277 -5.858446 -0.077700 1.797700 -4.946900 2.911985 2.562918 10.733538 1.226960 3.848193 1.474164 -2.444723 1.998800 -3.773225 -9.079484 4.710840 -13.193908 3.803675 8.882458 31.328607 5.108000 2.079700 17.979000 -6.030344 -1.588794 -1.589177 -84.277830 3.103586 10.942559 19.693077 -27.649319 -5.899085 -1.446184 -2.451453 5.524469 22.343850 22.706061 10.548800 -7.125000 0.000000 0.000000 -6.749600 57.097800 -2.006700 5.241806 0.898653 -1.305331 80.753407 -2.099590 11.629248 -18.790158 27.564150 -5.036274 0.414578 -0.064614 4.770036 -15.544590 7.020197 -2.007100 7.125000 0.000000 0.000000 7.917800 -22.683200 4.291900 
-4.016648 17.923851 8.000688 1.045312 10.814157 -3.354879 -2.767673 1.055134 1.694769 -5.393620 -8.392149 -15.535608 1.152385 9.873389 28.803865 -0.474141 3.357271 4.011488 0.000300 -0.103400 -0.284000 1.561811 -1.310810 1.752896 15.050255 0.739592 -4.152614 -1.776055 -9.243284 27.807676 0.216985 -3.036049 -5.851810 -0.092100 1.956800 -5.386400 2.988674 2.617975 10.699438 1.200488 3.929768 1.442428 -2.586113 2.038982 -3.819116 -8.930453 4.716584 -13.061216 3.702014 8.836821 31.200412 5.009900 2.088300 17.875000 -6.069738 -1.583260 -1.580871 -84.209258 3.218286 10.325440 19.190838 -27.038809 -5.601167 -1.493285 -2.392942 6.039777 22.447955 22.155287 10.385200 -7.125000 0.000000 0.000000 -6.362700 56.507500 -1.800200 5.251524 0.885991 -1.310790 80.736909 -2.214583 11.384888 -18.762935 27.532516 -5.022088 0.416247 -0.064180 4.678924 -15.570110 7.010250 -2.007800 7.125000 0.000000 0.000000 7.898400 -22.692400 4.279500 
-3.957772 17.927072 8.024641 1.191426 10.897554 -3.218247 -2.744919 1.088847 1.719887 -4.906465 -8.517702 -15.336886 1.049413 9.699347 28.229561 -0.519404 3.638861 4.261641 0.000100 -0.054600 -0.150100 1.556750 -1.333293 1.761252 14.741575 0.801552 -3.998839 -1.733048 -9.180559 27.578352 0.291744 -3.351415 -5.846336 -0.117400 2.209300 -6.084500 2.897486 2.687703 10.555178 1.138092 4.002376 1.415768 -2.700592 2.078381 -3.801906 -8.771624 4.728087 -12.978105 3.585532 8.811465 31.141665 4.909700 2.098100 17.828300 -6.106728 -1.577489 -1.573045 -84.156214 3.345932 9.704942 18.756058 -26.506473 -5.347395 -1.530308 -2.354561 6.431510 22.499343 21.814265 10.278000 -7.125000 0.000000 0.000000 -6.138400 56.138900 -1.681500 5.258364 0.867351 -1.316497 80.712420 -2.310748 11.163074 -18.721172 27.485998 -5.002024 0.414266 -0.065855 4.612984 -15.503187 7.064149 -2.014700 7.125000 0.000000 0.000000 7.946800 -22.637100 4.316400 
-3.900909 17.934721 8.046480 1.403225 11.045389 -3.091296 -2.724835 1.124689 1.741482 -4.441556 -8.773377 -15.087398 0.956223 9.535798 27.698259 -0.543621 3.821890 4.647293 0.008400 0.591500 1.625400 1.549455 -1.359397 1.772240 14.366697 0.748580 -3.837297 -1.684000 -9.103286 27.303733 0.365726 -3.659968 -5.821467 -0.167200 2.634000 -7.261500 2.675322 2.706609 10.466208 1.096093 3.994019 1.413600 -2.684947 2.076412 -3.769404 -8.791862 4.715289 -13.071081 3.573459 8.815961 31.137956 4.911000 2.094000 17.855200 -6.137810 -1.568505 -1.570172 -84.190257 3.437040 9.156346 18.438253 -26.109809 -5.165982 -1.523984 -2.325806 6.687782 22.147815 21.451246 9.956600 -7.125000 0.000000 0.000000 -6.380100 55.660500 -1.674000 5.265547 0.858505 -1.318513 80.541073 -2.278832 11.187218 -18.670430 27.423904 -4.975956 0.415461 -0.065188 4.510053 -15.504006 7.054875 -2.012300 7.125000 0.000000 0.000000 7.945700 -22.646500 4.314100 
-3.844549 17.949314 8.063489 1.342576 11.199692 -3.098651 -2.684032 1.185561 1.776346 -3.642785 -9.290615 -14.669333 0.867530 9.362395 27.132426 -0.569431 4.034487 5.124934 0.121500 2.247300 6.189600 1.534353 -1.388041 1.778154 14.308995 0.774747 -3.562826 -1.633527 -9.022000 27.027095 0.445063 -3.982375 -5.771457 -0.202000 2.893700 -7.983100 2.728850 2.680749 10.538899 1.100055 3.972454 1.406134 -2.736954 2.061857 -3.820485 -8.798605 4.724035 -13.173396 3.607301 8.842756 31.159281 4.939700 2.102200 17.900200 -6.165852 -1.563927 -1.567456 -84.202729 3.518080 8.491030 18.123145 -25.711464 -4.986097 -1.526916 -2.299216 7.017710 21.875931 21.181926 9.716700 -7.125000 0.000000 0.000000 -6.567600 55.303200 -1.666500 5.276815 0.854540 -1.320700 80.364332 -2.216186 11.207466 -18.578412 27.306319 -4.927442 0.420876 -0.069979 4.571564 -15.650696 7.093938 -2.044800 7.125000 0.000000 0.000000 7.833000 -22.596600 4.260700 
-3.785774 17.962297 8.084221 1.286784 11.368324 -3.108431 -2.642348 1.251403 1.811668 -2.882394 -9.879544 -14.197032 0.779742 9.185732 26.559228 -0.609455 4.324945 5.632125 0.309900 3.578800 9.894400 1.521307 -1.417471 1.783173 14.232816 0.899684 -3.233438 -1.584069 -8.944549 26.759363 0.517744 -4.278965 -5.739119 -0.193400 2.832200 -7.811900 2.783262 2.680958 10.500893 1.076658 3.981544 1.422826 -2.844307 2.064699 -3.766817 -8.697285 4.713259 -13.174246 3.633008 8.780205 31.082904 4.922200 2.105800 17.856400 -6.201696 -1.559180 -1.554930 -84.107882 3.487297 7.857738 17.735309 -25.218261 -4.765329 -1.570692 -2.300909 7.375259 21.968512 21.388531 9.854800 -7.125000 0.000000 0.000000 -6.523100 55.553700 -1.694800 5.287901 0.850598 -1.319138 80.303565 -2.172925 11.147446 -18.511622 27.224335 -4.893100 0.425656 -0.072746 4.633506 -15.775470 7.104653 -2.065700 7.125000 0.000000 0.000000 7.737800 -22.578600 4.211200 
-3.722470 17.952836 8.104551 1.325275 11.534589 -3.075639 -2.608407 1.284501 1.829027 -2.389751 -9.976330 -14.076076 0.695255 9.013488 25.987927 -0.635201 4.641808 6.650552 0.101000 2.049600 5.642600 1.510160 -1.440650 1.794323 14.022335 0.971380 -2.946774 -1.537725 -8.864462 26.492716 0.565858 -4.471879 -5.694443 -0.191600 2.818700 -7.774300 2.760937 2.665122 10.471200 1.050531 3.957160 1.415498 -2.911068 2.053129 -3.763574 -8.708319 4.739666 -13.229389 3.659873 8.825244 31.050056 4.945700 2.125800 17.845000 -6.238895 -1.552602 -1.548157 -84.093647 3.502300 7.176154 17.351032 -24.724574 -4.546636 -1.640448 -2.349534 7.632049 22.308169 22.180448 10.363700 -7.125000 0.000000 0.000000 -6.436500 56.515900 -1.822500 5.296438 0.847588 -1.321593 80.190426 -2.169685 11.133559 -18.468222 27.171915 -4.871961 0.423853 -0.069199 4.649346 -15.704141 7.001943 -2.025500 7.125000 0.000000 0.000000 7.794800 -22.690700 4.222600 
